<svg  width="206" height="56" viewBox="0 0 206 56" fill="none" xmlns="http://www.w3.org/2000/svg">
<path d="M26.8096 54.7519C22.8934 54.7519 19.2748 53.9588 16.1022 52.4221C12.8801 50.8854 10.1041 48.8034 7.82382 46.2753C5.54354 43.7471 3.70942 40.8224 2.47014 37.5012C1.23086 34.2295 0.586426 30.8091 0.586426 27.3887C0.586426 23.8195 1.28042 20.3496 2.56927 17.0779C3.90769 13.8062 5.7914 10.8319 8.12125 8.30377C10.4511 5.77564 13.2766 3.74323 16.4988 2.25609C19.7209 0.768958 23.2405 0.0253906 27.0079 0.0253906C30.8744 0.0253906 34.4435 0.81853 37.6657 2.40481C40.8382 3.99108 43.6142 6.12264 45.8945 8.70034C48.1747 11.278 49.9593 14.2523 51.2481 17.524C52.4874 20.7957 53.1318 24.1665 53.1318 27.587C53.1318 31.0569 52.4874 34.4278 51.2481 37.6003C50.0089 40.7729 48.2739 43.5984 46.0928 46.077L40.3921 50.935C38.4588 52.1247 36.3272 53.0665 34.047 53.7605C31.8163 54.4049 29.3873 54.7519 26.8096 54.7519ZM26.8591 7.9072C24.1327 7.9072 21.6542 8.50206 19.5226 9.59262C17.3911 10.7328 15.5569 12.2199 14.1689 14.1036C12.7314 15.9377 11.6904 18.0693 10.9468 20.3496C10.2032 22.6298 9.85624 25.0093 9.85624 27.3887C9.85624 29.8672 10.2528 32.2962 10.9964 34.6261C11.7399 36.9559 12.8801 39.0379 14.3176 40.8224C15.7552 42.607 17.5398 44.0941 19.6713 45.1847C21.8029 46.2753 24.2319 46.8206 26.9087 46.8206C28.4454 46.8206 29.7838 46.6223 31.0727 46.2753C32.3615 45.9283 33.5513 45.4326 34.6418 44.8377L34.7409 44.7881L40.4416 39.3849L40.4912 39.2857C41.5818 37.5508 42.4245 35.667 43.0193 33.5851C43.6142 31.5526 43.9116 29.4707 43.9116 27.3391C43.9116 24.8605 43.515 22.4316 42.7219 20.1017C41.9288 17.7719 40.7886 15.6899 39.3511 13.9053C37.9135 12.1208 36.1289 10.6336 33.9974 9.54305C31.9154 8.50206 29.4864 7.9072 26.8591 7.9072Z" fill="white"/>
<path d="M80.0977 47.7134C82.1797 47.7134 83.9643 47.2672 85.4019 46.4245C86.8394 45.5818 87.9796 44.4417 88.8718 43.0537C89.7641 41.6657 90.359 40.129 90.7555 38.3444C91.1025 36.5599 91.3008 34.7257 91.3008 32.842V9.54358H100.125V32.842C100.125 35.965 99.7279 38.9393 98.9844 41.6657C98.2408 44.3921 97.0511 46.8211 95.4648 48.8535C93.8785 50.9355 91.7965 52.5218 89.2684 53.761C86.7403 54.9508 83.7164 55.5456 80.1969 55.5456C76.5286 55.5456 73.4552 54.9012 70.8775 53.6619C68.2998 52.3731 66.2674 50.7372 64.6811 48.6552C63.0949 46.5732 61.9547 44.1442 61.2607 41.4178C60.5667 38.6914 60.2197 35.8163 60.2197 32.842V9.54358H69.093V32.842C69.093 34.7753 69.2912 36.6094 69.6382 38.394C69.9852 40.1786 70.6297 41.7648 71.5219 43.1032C72.4142 44.4912 73.5544 45.5818 74.9423 46.4245C76.2808 47.3168 78.0158 47.7134 80.0977 47.7134Z" fill="white"/>
<path d="M145.878 43.4998C145.878 45.4331 145.482 47.1185 144.738 48.6056C143.945 50.0432 142.904 51.2825 141.566 52.2739C140.227 53.2653 138.641 54.0089 136.857 54.5046C135.072 55.0003 133.188 55.2977 131.156 55.2977H109.097V9.54358H133.486C135.072 9.54358 136.51 9.89058 137.798 10.5846C139.087 11.2786 140.178 12.1709 141.07 13.2614C141.962 14.352 142.656 15.5913 143.152 16.9793C143.648 18.3672 143.896 19.7552 143.896 21.1928C143.896 23.4235 143.35 25.5055 142.21 27.4883C141.07 29.4216 139.484 30.9087 137.303 31.8506C139.93 32.6437 142.012 34.0317 143.499 36.0146C145.085 37.9974 145.878 40.476 145.878 43.4998ZM117.92 17.1775V28.678H129.768C131.255 28.678 132.544 28.1823 133.585 27.1413C134.626 26.1003 135.171 24.7124 135.171 22.8782C135.171 21.1432 134.675 19.7057 133.734 18.7142C132.792 17.6732 131.602 17.1775 130.164 17.1775H117.92ZM136.906 41.8144C136.906 41.0213 136.757 40.2281 136.51 39.4846C136.212 38.741 135.865 38.0966 135.369 37.5017C134.874 36.9564 134.328 36.5103 133.684 36.1633C133.04 35.8163 132.346 35.6676 131.552 35.6676H117.92V47.7134H131.106C131.899 47.7134 132.693 47.5647 133.387 47.2672C134.081 46.9698 134.725 46.5732 135.221 46.0279C135.716 45.4827 136.163 44.8382 136.46 44.1442C136.757 43.4007 136.906 42.6075 136.906 41.8144Z" fill="white"/>
<path d="M161.691 9.54358H152.818V55.2482H161.691V9.54358Z" fill="white"/>
<path d="M205.413 17.3262H190.79V55.2482H181.966V17.3262H167.343V9.54358H205.413V17.3262Z" fill="white"/>
<path d="M25.7681 34.5769H35.9302L54.2715 55.1985H44.1094L25.7681 34.5769Z" fill="#F15A29"/>
</svg>

