<svg width="707" height="50" viewBox="0 0 707 50" fill="none" xmlns="http://www.w3.org/2000/svg">
<path opacity="0.65" d="M27.3567 30.264H10.206L6.35417 40.948H0.787242L16.4196 0.011391H21.1431L36.8036 40.948H31.2648L27.3567 30.264ZM11.8368 25.8217H25.7541L18.7814 6.67484L11.8368 25.8217ZM63.4551 14.8284H49.4253V40.948H44.1958V10.5267H63.4551V14.8284ZM82.3467 41.5103C78.223 41.5103 74.8679 40.1608 72.2812 37.4616C69.6946 34.7438 68.4012 31.1168 68.4012 26.5808V25.6249C68.4012 22.6071 68.9729 19.9174 70.1163 17.5557C71.2784 15.1752 72.8904 13.3195 74.9522 11.9887C77.0328 10.6392 79.2821 9.96438 81.7 9.96438C85.655 9.96438 88.729 11.2671 90.922 13.8725C93.115 16.4779 94.2116 20.2079 94.2116 25.0626V27.2275H73.6027C73.6776 30.2265 74.5492 32.6538 76.2174 34.5095C77.9044 36.3464 80.0412 37.2648 82.6278 37.2648C84.4647 37.2648 86.0205 36.89 87.2951 36.1402C88.5696 35.3904 89.6849 34.397 90.6408 33.1599L93.8179 35.6341C91.2688 39.5516 87.445 41.5103 82.3467 41.5103ZM81.7 14.238C79.6007 14.238 77.8388 15.0065 76.4142 16.5435C74.9897 18.0617 74.1088 20.1985 73.7714 22.9539H89.0101V22.5603C88.8602 19.9174 88.1479 17.8743 86.8733 16.431C85.5987 14.969 83.8743 14.238 81.7 14.238ZM127.414 40.948H122.213V27.9585H108.239V40.948H103.01V10.5267H108.239V23.713H122.213V10.5267H127.414V40.948ZM150.298 37.2648C152.154 37.2648 153.775 36.7025 155.162 35.5779C156.549 34.4532 157.318 33.0475 157.468 31.3605H162.388C162.294 33.1037 161.694 34.7625 160.588 36.337C159.483 37.9115 158.002 39.1673 156.146 40.1045C154.309 41.0417 152.36 41.5103 150.298 41.5103C146.156 41.5103 142.857 40.1326 140.401 37.3773C137.965 34.6032 136.746 30.8169 136.746 26.0185V25.1469C136.746 22.1854 137.29 19.5519 138.377 17.2464C139.464 14.9409 141.02 13.1508 143.044 11.8763C145.087 10.6017 147.496 9.96438 150.27 9.96438C153.681 9.96438 156.512 10.9859 158.761 13.029C161.029 15.0721 162.238 17.7243 162.388 20.9858H157.468C157.318 19.0177 156.568 17.4057 155.218 16.1499C153.888 14.8753 152.238 14.238 150.27 14.238C147.627 14.238 145.575 15.1939 144.113 17.1058C142.669 18.9989 141.948 21.7449 141.948 25.3437V26.3278C141.948 29.8329 142.669 32.532 144.113 34.4251C145.556 36.3183 147.618 37.2648 150.298 37.2648ZM193.144 14.7441H182.938V40.948H177.737V14.7441H167.728V10.5267H193.144V14.7441ZM200.986 40.948V10.5267H212.851C216.9 10.5267 220.002 11.239 222.158 12.6635C224.332 14.0693 225.419 16.1405 225.419 18.8771C225.419 20.2829 224.997 21.5575 224.154 22.7008C223.31 23.8255 222.064 24.6877 220.414 25.2875C222.251 25.7186 223.723 26.5621 224.829 27.8179C225.953 29.0738 226.516 30.5733 226.516 32.3164C226.516 35.1093 225.485 37.2461 223.423 38.7268C221.38 40.2076 218.484 40.948 214.735 40.948H200.986ZM206.188 27.593V36.7587H214.791C216.966 36.7587 218.587 36.3558 219.655 35.5498C220.742 34.7438 221.286 33.6098 221.286 32.1478C221.286 29.1112 219.055 27.593 214.594 27.593H206.188ZM206.188 23.4319H212.907C217.781 23.4319 220.218 22.0073 220.218 19.1583C220.218 16.3092 217.912 14.8378 213.301 14.7441H206.188V23.4319ZM234.329 25.4562C234.329 22.4759 234.911 19.7955 236.073 17.4151C237.254 15.0346 238.884 13.1977 240.965 11.9044C243.064 10.611 245.454 9.96438 248.134 9.96438C252.277 9.96438 255.622 11.3983 258.172 14.2661C260.74 17.1339 262.024 20.9483 262.024 25.7092V26.0747C262.024 29.0363 261.452 31.6979 260.308 34.0596C259.184 36.4026 257.562 38.2301 255.444 39.5422C253.345 40.8543 250.927 41.5103 248.191 41.5103C244.067 41.5103 240.721 40.0764 238.153 37.2086C235.604 34.3408 234.329 30.5452 234.329 25.8217V25.4562ZM239.559 26.0747C239.559 29.4486 240.337 32.1571 241.893 34.2002C243.467 36.2433 245.566 37.2648 248.191 37.2648C250.833 37.2648 252.933 36.2339 254.488 34.1721C256.044 32.0915 256.822 29.1862 256.822 25.4562C256.822 22.1198 256.025 19.4207 254.432 17.3588C252.858 15.2783 250.758 14.238 248.134 14.238C245.566 14.238 243.495 15.2595 241.921 17.3026C240.346 19.3457 239.559 22.2697 239.559 26.0747ZM312.318 40.948H307.117V14.8284H293.115V40.948H287.886V10.5267H312.318V40.948ZM321.594 25.4562C321.594 22.4759 322.175 19.7955 323.337 17.4151C324.518 15.0346 326.149 13.1977 328.229 11.9044C330.329 10.611 332.719 9.96438 335.399 9.96438C339.541 9.96438 342.887 11.3983 345.436 14.2661C348.004 17.1339 349.288 20.9483 349.288 25.7092V26.0747C349.288 29.0363 348.717 31.6979 347.573 34.0596C346.449 36.4026 344.827 38.2301 342.709 39.5422C340.61 40.8543 338.192 41.5103 335.455 41.5103C331.332 41.5103 327.986 40.0764 325.418 37.2086C322.869 34.3408 321.594 30.5452 321.594 25.8217V25.4562ZM326.824 26.0747C326.824 29.4486 327.602 32.1571 329.157 34.2002C330.732 36.2433 332.831 37.2648 335.455 37.2648C338.098 37.2648 340.197 36.2339 341.753 34.1721C343.309 32.0915 344.087 29.1862 344.087 25.4562C344.087 22.1198 343.29 19.4207 341.697 17.3588C340.122 15.2783 338.023 14.238 335.399 14.238C332.831 14.238 330.76 15.2595 329.185 17.3026C327.611 19.3457 326.824 22.2697 326.824 26.0747ZM382.603 10.5267V40.948H377.374V14.8284H367.027L366.408 26.2153C366.071 31.4449 365.19 35.1843 363.766 37.4335C362.36 39.6828 360.12 40.8543 357.046 40.948H354.965V36.3651L356.456 36.2527C358.142 36.0652 359.351 35.0905 360.082 33.3286C360.813 31.5667 361.282 28.3053 361.488 23.5443L362.051 10.5267H382.603ZM418.111 40.948H412.91V27.9585H398.936V40.948H393.707V10.5267H398.936V23.713H412.91V10.5267H418.111V40.948ZM427.415 25.4562C427.415 22.4759 427.996 19.7955 429.158 17.4151C430.339 15.0346 431.97 13.1977 434.051 11.9044C436.15 10.611 438.54 9.96438 441.22 9.96438C445.363 9.96438 448.708 11.3983 451.257 14.2661C453.825 17.1339 455.109 20.9483 455.109 25.7092V26.0747C455.109 29.0363 454.538 31.6979 453.394 34.0596C452.27 36.4026 450.648 38.2301 448.53 39.5422C446.431 40.8543 444.013 41.5103 441.276 41.5103C437.153 41.5103 433.807 40.0764 431.239 37.2086C428.69 34.3408 427.415 30.5452 427.415 25.8217V25.4562ZM432.645 26.0747C432.645 29.4486 433.423 32.1571 434.978 34.2002C436.553 36.2433 438.652 37.2648 441.276 37.2648C443.919 37.2648 446.019 36.2339 447.574 34.1721C449.13 32.0915 449.908 29.1862 449.908 25.4562C449.908 22.1198 449.111 19.4207 447.518 17.3588C445.944 15.2783 443.844 14.238 441.22 14.238C438.652 14.238 436.581 15.2595 435.007 17.3026C433.432 19.3457 432.645 22.2697 432.645 26.0747ZM483.588 14.8284H469.559V40.948H464.329V10.5267H483.588V14.8284ZM488.478 25.4562C488.478 22.4759 489.059 19.7955 490.221 17.4151C491.402 15.0346 493.033 13.1977 495.114 11.9044C497.213 10.611 499.603 9.96438 502.283 9.96438C506.426 9.96438 509.771 11.3983 512.321 14.2661C514.888 17.1339 516.172 20.9483 516.172 25.7092V26.0747C516.172 29.0363 515.601 31.6979 514.457 34.0596C513.333 36.4026 511.711 38.2301 509.593 39.5422C507.494 40.8543 505.076 41.5103 502.339 41.5103C498.216 41.5103 494.87 40.0764 492.302 37.2086C489.753 34.3408 488.478 30.5452 488.478 25.8217V25.4562ZM493.708 26.0747C493.708 29.4486 494.486 32.1571 496.041 34.2002C497.616 36.2433 499.715 37.2648 502.339 37.2648C504.982 37.2648 507.082 36.2339 508.637 34.1721C510.193 32.0915 510.971 29.1862 510.971 25.4562C510.971 22.1198 510.174 19.4207 508.581 17.3588C507.007 15.2783 504.907 14.238 502.283 14.238C499.715 14.238 497.644 15.2595 496.07 17.3026C494.495 19.3457 493.708 22.2697 493.708 26.0747ZM542.034 10.5267H547.264V36.7025H561.266V10.5267H566.467V36.7025H570.094L569.588 49.9732H564.921V40.948H542.034V10.5267ZM597.701 10.5267H602.903V40.948H597.701V18.7646L583.672 40.948H578.47V10.5267H583.672V32.7382L597.701 10.5267ZM623.032 27.9866H619.236V40.948H614.006V10.5267H619.236V23.4037H622.638L632.872 10.5267H639.17L627.136 25.1469L640.182 40.948H633.575L623.032 27.9866ZM671.895 10.5267V40.948H666.665V14.8284H656.318L655.7 26.2153C655.362 31.4449 654.482 35.1843 653.057 37.4335C651.651 39.6828 649.411 40.8543 646.337 40.948H644.257V36.3651L645.747 36.2527C647.434 36.0652 648.643 35.0905 649.374 33.3286C650.105 31.5667 650.573 28.3053 650.78 23.5443L651.342 10.5267H671.895ZM701.33 40.948C701.03 40.3482 700.786 39.2798 700.599 37.7428C698.181 40.2545 695.294 41.5103 691.939 41.5103C688.94 41.5103 686.475 40.6668 684.544 38.9799C682.633 37.2742 681.677 35.1187 681.677 32.5133C681.677 29.3455 682.876 26.8901 685.275 25.1469C687.693 23.385 691.086 22.504 695.453 22.504H700.514V20.1142C700.514 18.296 699.971 16.8528 698.883 15.7844C697.796 14.6972 696.194 14.1536 694.076 14.1536C692.22 14.1536 690.664 14.6222 689.408 15.5594C688.153 16.4966 687.525 17.6306 687.525 18.9614H682.295C682.295 17.4432 682.829 15.9812 683.898 14.5754C684.985 13.1508 686.447 12.0262 688.284 11.2015C690.139 10.3767 692.173 9.96438 694.385 9.96438C697.89 9.96438 700.636 10.8453 702.623 12.6073C704.61 14.3504 705.641 16.759 705.716 19.833V33.8347C705.716 36.6275 706.072 38.8487 706.784 40.4981V40.948H701.33ZM692.698 36.9837C694.329 36.9837 695.875 36.5619 697.337 35.7185C698.799 34.875 699.858 33.7785 700.514 32.4289V26.1872H696.437C690.065 26.1872 686.878 28.0522 686.878 31.7822C686.878 33.413 687.422 34.6875 688.509 35.606C689.596 36.5244 690.992 36.9837 692.698 36.9837Z" fill="white"/>
</svg>
